<svg xmlns="http://www.w3.org/2000/svg" viewBox="0 0 500 500"><g id="freepik--gingerbread-man-cookie-2--inject-79"><path d="M430.24,168.84c.45,1.3-1.14,3-2.43,3.47a3,3,0,0,1-4.08-2.86c0-1.37,1.93-4.64,3.22-5.08S429.79,167.54,430.24,168.84Z" style="fill:#FF725E"></path><path d="M430.24,168.84c.45,1.3-1.14,3-2.43,3.47a3,3,0,0,1-4.08-2.86c0-1.37,1.93-4.64,3.22-5.08S429.79,167.54,430.24,168.84Z" style="opacity:0.2"></path><path d="M377.06,115.2c-4.55,5.69-1.49,9.39,4.78,11.9-.65-1.84-.16-4,1.9-6.58,10.88-13.58,42-26.8,25.05-46.12A15.58,15.58,0,0,0,403,70.19C417.84,88.91,387.73,101.89,377.06,115.2Z" style="fill:#FF725E"></path><path d="M297.6,162.36c-10.8,4.47-22.08,7.29-30.09,4,7.26,10.24,22.43,7.2,36.77,1.28,7.34-3,12.2-5.23,15.66-5.35C316.41,153.94,311.4,156.65,297.6,162.36Z" style="fill:#FF725E"></path><path d="M404.64,177.66c-9.45-2.37-18.05-6.13-21.88-7.63-9.42-3.68-14.6-7.52-13.76,5.1s11.76,58.15-25.71,57.31a24.63,24.63,0,0,1-9.38-1.87c3.13,4.28,8.15,7,16.06,7.18,37.47.85,26.55-44.69,25.71-57.31s4.34-8.78,13.76-5.09c2.7,1.06,7.79,3.24,13.87,5.27a15.17,15.17,0,0,1,1.16-2.68C404.52,177.84,404.59,177.76,404.64,177.66Z" style="fill:#FF725E"></path><path d="M348.46,86.63s3-3,7.77-6.87c-.46-8.58-3.49-13.61-3.49-13.61-3.2-7.23-7.68-11.89-12.71-14.72a34.34,34.34,0,0,1,6,9.41S352.11,70.78,348.46,86.63Z" style="fill:#FF725E"></path><path d="M377.06,115.2c-4.55,5.69-1.49,9.39,4.78,11.9-.65-1.84-.16-4,1.9-6.58,10.88-13.58,42-26.8,25.05-46.12A15.58,15.58,0,0,0,403,70.19C417.84,88.91,387.73,101.89,377.06,115.2Z" style="opacity:0.2"></path><path d="M297.6,162.36c-10.8,4.47-22.08,7.29-30.09,4,7.26,10.24,22.43,7.2,36.77,1.28,7.34-3,12.2-5.23,15.66-5.35C316.41,153.94,311.4,156.65,297.6,162.36Z" style="opacity:0.2"></path><path d="M404.64,177.66c-9.45-2.37-18.05-6.13-21.88-7.63-9.42-3.68-14.6-7.52-13.76,5.1s11.76,58.15-25.71,57.31a24.63,24.63,0,0,1-9.38-1.87c3.13,4.28,8.15,7,16.06,7.18,37.47.85,26.55-44.69,25.71-57.31s4.34-8.78,13.76-5.09c2.7,1.06,7.79,3.24,13.87,5.27a15.17,15.17,0,0,1,1.16-2.68C404.52,177.84,404.59,177.76,404.64,177.66Z" style="opacity:0.2"></path><path d="M348.46,86.63s3-3,7.77-6.87c-.46-8.58-3.49-13.61-3.49-13.61-3.2-7.23-7.68-11.89-12.71-14.72a34.34,34.34,0,0,1,6,9.41S352.11,70.78,348.46,86.63Z" style="opacity:0.2"></path><path d="M369,175.13c-.84-12.62,4.34-8.78,13.76-5.1,3.83,1.5,12.43,5.26,21.88,7.63a12.27,12.27,0,0,1,2.68-3.16c-5.78-1.17-11.48-3.39-16.8-5.28-4.82-1.71-9.62-3.52-14.5-5.07-2.42-.77-7.41-3.08-9.55-1-2.84,2.78-2.75,9.61-2.9,13.18a99.11,99.11,0,0,0,.54,15.21c.49,4.34,1.44,8.35.95,12.75a36.44,36.44,0,0,1-5.44,15.74c-5.13,7.93-14.51,10.9-22.56,5.12-7.88-5.65-10.16-14.83-10.84-23.93-.73-9.9-.39-19.85-.17-29.76.2-8.65-.32-20.39-11.6-21.53-5.44-.54-10.92,2.24-15.71,4.49-4.54,2.13-9,4.44-13.62,6.39-7.27,3.07-16.36,5.2-20.81-3.44s1.76-17.81,8.6-22.78c8-5.82,17.23-9.27,26.16-13.33l11.86-5.59a63.51,63.51,0,0,1-12.27-6.86c-7.37-5.14-14-11.21-16.37-20.17-5.5-21.13,12.41-43.49,34.49-41.73,21.34,1.71,28.79,23.19,29.17,42.16a1.11,1.11,0,0,1,.34.83,24.15,24.15,0,0,1-.22,2.71c.29.15.59.3.87.46q2.21-1.57,4.38-3.19c8.71-6.43,16.53-14.83,26.49-19.32,7.05-3.18,18.21-5.83,22.78,2.64,4.3,8-3.62,17.14-9,22.31-6.23,6-14,10.19-19.37,17.11-2.87,3.69-5.31,8.68-2.5,13.1s8.71,6.62,13.46,8.06a73.12,73.12,0,0,0,16.21,2.88,13.85,13.85,0,0,1,.73-5.54c-6.66-.87-13.43-2.1-18.28-4-6.27-2.51-9.33-6.21-4.78-11.9,10.67-13.31,40.78-26.29,25.95-45-.29-.37-.57-.74-.9-1.11-11.95-13.62-34.12,1.1-45.88,10.68-4.73,3.85-7.77,6.87-7.77,6.87,3.65-15.85-2.4-25.79-2.4-25.79-1.69-3.82-3.37-7.31-6-9.41-15-11.87-33.26-9-42.9-3.29-10.38,6.14-23.92,18.74-18,41.6a33.7,33.7,0,0,0,15.19,20.83c5,3.07,7.81,4.74,7.81,4.74s.62-.39-1,.67a112.26,112.26,0,0,1-13.06,7c-12.59,6-34.83,11.07-30.75,29.77,1.62,7.44,5.28,11.65,10.14,13.62,8,3.25,19.29.43,30.09-4,13.8-5.71,18.81-8.42,22.34,0a53.55,53.55,0,0,1,2.56,8.79c3.61,16.24-7.86,51,11.41,59.45a24.63,24.63,0,0,0,9.38,1.87C380.76,233.28,369.84,187.74,369,175.13Z" style="fill:#FF725E"></path><path d="M348.9,110.73c3.55-5,2.08-11-2.22-14.48-.5.35-1,.71-1.5,1.06a.76.76,0,0,1-.22.11,28,28,0,0,1-12.07,14.77C337.67,116.41,345,116.25,348.9,110.73Z" style="fill:#FF725E"></path><path d="M313.63,117.08c1.54,5,3.29,12.35,9.89,10.26,5.15-1.64,5.3-8.56,6.2-13.48a27.54,27.54,0,0,1-14.62,2.36,1,1,0,0,1-.41.36Z" style="fill:#FF725E"></path><path d="M372.09,125.23c-2.81-4.42-.37-9.42,2.5-13.1C380,105.21,387.73,101,394,95c5.38-5.18,13.31-14.33,9-22.32-4.57-8.46-15.73-5.81-22.78-2.63-10,4.49-17.78,12.88-26.49,19.32-1.45,1.07-2.91,2.14-4.38,3.19a14.14,14.14,0,0,1,2.05,1.52c5.2-3.73,10.32-7.6,15.23-11.69,7.45-6.2,16.65-14,27.13-12.94,5.61.54,9.14,5.35,7.57,10.89-1.39,4.93-5.19,9.15-8.76,12.67-5.61,5.54-12.56,9.47-17.92,15.35-4.47,4.9-8.68,12.06-4.4,18.41,4.75,7.06,15.43,9.49,23.23,10.82a44.46,44.46,0,0,0,6.31.82,12.74,12.74,0,0,1-.39-2.46,53.37,53.37,0,0,1-13.81-2.68C380.8,131.85,374.89,129.64,372.09,125.23Z" style="opacity:0.2"></path><path d="M369.72,125.74c-2.81-4.42-.37-9.41,2.5-13.1,5.41-6.92,13.14-11.11,19.37-17.11,5.38-5.17,13.3-14.32,9-22.31-4.57-8.47-15.73-5.82-22.78-2.64-10,4.49-17.78,12.89-26.49,19.32q-2.18,1.62-4.38,3.19A14.14,14.14,0,0,1,349,94.61c5.2-3.73,10.31-7.59,15.23-11.68,7.45-6.2,16.64-14,27.12-13,5.62.55,9.15,5.36,7.58,10.89-1.39,4.93-5.19,9.15-8.76,12.68-5.61,5.53-12.56,9.47-17.92,15.34-4.47,4.91-8.68,12.06-4.4,18.41,4.75,7.06,15.43,9.5,23.23,10.82a82.13,82.13,0,0,0,8.73,1,13.48,13.48,0,0,1-.41-2.45,73.12,73.12,0,0,1-16.21-2.88C378.43,132.36,372.52,130.15,369.72,125.74Z" style="fill:#fff"></path><path d="M373.51,162.44c-2.15-.49-4.53-1-6.41.43-2.2,1.69-2.93,5-3.42,7.6-1.62,8.49-1.19,17.77.13,26.28,1.51,9.75-.28,22.89-9.13,29.06-10.75,7.49-21.48-5.38-23.41-15.16-1.81-9.1-1.43-18.78-1.28-28,.1-6.4,1.21-13.54-.12-19.86-1.85-8.75-9.3-14.64-18.31-13s-17.13,7.24-25.41,10.75c-3.46,1.45-7.95,3.52-11.79,2.68-6.1-1.32-8.3-8.06-6.82-13.5,2.83-10.39,15.18-15.69,24.07-19.82,3.44-1.59,7-3,10.42-4.51l11.66-5.5a16.89,16.89,0,0,1-.08-2.22c-.4-.1-.79-.2-1.19-.32a.65.65,0,0,1,.29-1.26c1.11.16,2.22.26,3.34.31h0a50.61,50.61,0,0,1-10.58-5.11c-6.87-4.15-14.29-9.57-17.66-17.09a29.16,29.16,0,0,1,1.85-27c5.63-9,14.58-15.72,25.53-15.94,14.49-.3,23.62,9.11,27.39,22.38a71.68,71.68,0,0,1,2.66,19.29c.08-.41.17-.83.24-1.25a1.3,1.3,0,0,1,2.19-.58c-.38-19-7.83-40.45-29.17-42.15-22.08-1.77-40,20.59-34.49,41.72,2.33,9,9,15,16.37,20.17a62.92,62.92,0,0,0,12.27,6.86l-11.87,5.59c-8.93,4.06-18.15,7.51-26.15,13.33-6.84,5-13,14.21-8.61,22.78s13.54,6.51,20.82,3.44c4.62-2,9.07-4.26,13.62-6.39,4.79-2.24,10.26-5,15.71-4.48,11.27,1.13,11.79,12.87,11.6,21.52-.22,9.91-.57,19.87.17,29.76.68,9.1,3,18.28,10.84,23.94,8.05,5.77,17.43,2.8,22.56-5.12a36.43,36.43,0,0,0,5.44-15.75c.49-4.4-.47-8.41-.95-12.74a99.24,99.24,0,0,1-.54-15.22c.15-3.57.06-10.4,2.9-13.18,2.14-2.09,7.13.21,9.55,1,4.88,1.55,9.67,3.37,14.5,5.08,5.32,1.88,8,3.39,13.76,4.56,1-.86,1.23-1.71,2.47-2.13-4.44-.65-4.85-1.14-8.66-2.38C391.07,168.42,382.49,164.48,373.51,162.44Z" style="opacity:0.30000000000000004"></path><path d="M371.81,160.44c-2.15-.49-4.54-1-6.42.42-2.19,1.7-2.93,5-3.42,7.6-1.61,8.5-1.19,17.78.13,26.29,1.52,9.75-.28,22.89-9.13,29.05-10.75,7.49-21.47-5.37-23.41-15.15-1.8-9.11-1.42-18.78-1.28-28,.1-6.39,1.21-13.53-.12-19.85-1.84-8.75-9.29-14.65-18.31-13S292.73,155,284.44,158.5c-3.45,1.46-7.95,3.53-11.79,2.69-6.1-1.33-8.3-8.06-6.82-13.5C268.66,137.3,281,132,289.9,127.87c3.44-1.59,7-3,10.42-4.51l11.67-5.5a17,17,0,0,1-.09-2.23c-.39-.1-.79-.2-1.19-.32a.64.64,0,0,1,.3-1.25c1.1.16,2.22.26,3.34.31h0a50.55,50.55,0,0,1-10.58-5.1c-6.86-4.15-14.29-9.57-17.66-17.09a29.19,29.19,0,0,1,1.85-27c5.63-9,14.58-15.71,25.53-15.93,14.49-.3,23.62,9.1,27.4,22.37a72.2,72.2,0,0,1,2.65,19.3c.09-.41.17-.83.24-1.25a1.3,1.3,0,0,1,2.19-.58c-.38-19-7.83-40.45-29.17-42.16-22.08-1.76-40,20.6-34.49,41.73,2.34,9,9,15,16.37,20.17a63.51,63.51,0,0,0,12.27,6.86l-11.86,5.59c-8.93,4.06-18.16,7.51-26.16,13.33-6.84,5-13,14.21-8.6,22.78s13.54,6.51,20.81,3.44c4.62-2,9.08-4.26,13.62-6.39,4.79-2.25,10.27-5,15.71-4.49,11.28,1.14,11.8,12.88,11.6,21.53-.22,9.91-.56,19.86.17,29.76.68,9.1,3,18.28,10.84,23.93,8.05,5.78,17.43,2.81,22.56-5.12a36.44,36.44,0,0,0,5.44-15.74c.49-4.4-.46-8.41-.95-12.75a99.11,99.11,0,0,1-.54-15.21c.15-3.57.06-10.4,2.9-13.18,2.14-2.1,7.13.21,9.55,1,4.88,1.55,9.68,3.36,14.5,5.07,5.32,1.89,11,4.11,16.8,5.28a10.56,10.56,0,0,1,3.45-1.95,77.37,77.37,0,0,1-12.67-3.28C389.36,166.42,380.79,162.48,371.81,160.44Z" style="fill:#fff"></path><path d="M343.76,89.67c-.07.42-.15.84-.24,1.25-1.51,7.42-4.6,14-11,18.52a29.15,29.15,0,0,1-18.13,4.93c-1.12-.05-2.24-.15-3.34-.31a.64.64,0,0,0-.3,1.25c.4.12.8.22,1.19.32v-.06a.6.6,0,0,1,1.17-.19l.19.55c.61.12,1.22.22,1.84.29a27.54,27.54,0,0,0,14.62-2.36,16.78,16.78,0,0,1,.39-1.78,1.23,1.23,0,0,1,2-.61q.36.38.75.72A28,28,0,0,0,345,97.42c.22-.66.41-1.33.58-2a11.52,11.52,0,0,0-1.28-.74c-1.55-.76-.3-3,1.24-2.34.2.09.38.2.57.29a24.15,24.15,0,0,0,.22-2.71,1.11,1.11,0,0,0-.34-.83A1.3,1.3,0,0,0,343.76,89.67Z" style="fill:#fff"></path><path d="M345.5,92.34c-1.54-.69-2.79,1.58-1.24,2.34a11.52,11.52,0,0,1,1.28.74,10.37,10.37,0,0,1,1.14.83c4.3,3.5,5.77,9.5,2.22,14.48-3.92,5.52-11.23,5.68-16,1.46q-.39-.34-.75-.72a1.23,1.23,0,0,0-2,.61,16.78,16.78,0,0,0-.39,1.78c-.9,4.92-1.05,11.84-6.2,13.48-6.6,2.09-8.35-5.27-9.89-10.26-.12-.4-.25-.78-.37-1.15l-.19-.55a.6.6,0,0,0-1.17.19v.06a17,17,0,0,0,.09,2.23c.59,5.64,4,12.37,10.26,12.16,7.72-.27,8.49-9.26,9.76-15.38a13.13,13.13,0,0,0,17-20,14.14,14.14,0,0,0-2.05-1.52c-.28-.16-.58-.31-.87-.46S345.7,92.43,345.5,92.34Z" style="fill:#fff"></path><path d="M340.87,71.62C337.09,58.35,328,49,313.47,49.25c-11,.22-19.9,6.92-25.53,15.93a29.19,29.19,0,0,0-1.85,27c3.37,7.52,10.8,12.94,17.66,17.09a50.55,50.55,0,0,0,10.58,5.1h0a29.15,29.15,0,0,0,18.13-4.93c6.44-4.53,9.53-11.1,11-18.52A72.2,72.2,0,0,0,340.87,71.62ZM303.43,89.93a3,3,0,1,1,1.89-3.82A3,3,0,0,1,303.43,89.93Zm21.3-15.81a3,3,0,1,1,1.89-3.82A3,3,0,0,1,324.73,74.12Z" style="fill:#FF725E"></path><path d="M416.46,150c-6.23.29-12.75-2.79-15.66-8.31a12.59,12.59,0,0,1-1-2.6,82.13,82.13,0,0,1-8.73-1c-7.8-1.32-18.48-3.76-23.23-10.82-4.28-6.35-.07-13.5,4.4-18.41,5.36-5.87,12.31-9.81,17.92-15.34,3.57-3.53,7.37-7.75,8.76-12.68,1.57-5.53-2-10.34-7.58-10.89-10.48-1-19.67,6.75-27.12,13-4.92,4.09-10,7.95-15.23,11.68a13.13,13.13,0,0,1-17,20c-1.27,6.12-2,15.11-9.76,15.38-6.27.21-9.67-6.52-10.26-12.16l-11.67,5.5c-3.45,1.56-7,2.92-10.42,4.51-8.89,4.13-21.24,9.43-24.07,19.82-1.48,5.44.72,12.17,6.82,13.5,3.84.84,8.34-1.23,11.79-2.69,8.29-3.5,16.44-9.15,25.41-10.75s16.47,4.29,18.31,13c1.33,6.32.22,13.46.12,19.85-.14,9.23-.52,18.9,1.28,28,1.94,9.78,12.66,22.64,23.41,15.15,8.85-6.16,10.65-19.3,9.13-29.05-1.32-8.51-1.75-17.79-.13-26.29.49-2.55,1.23-5.9,3.42-7.6,1.88-1.45,4.27-.91,6.42-.42,9,2,17.55,6,26.29,8.83a77.37,77.37,0,0,0,12.67,3.28,8.32,8.32,0,0,1,3.87-.41C408.69,166.2,409.61,154.92,416.46,150ZM349.84,138a6.4,6.4,0,0,1-9.14,1c-2.52-2.32-3.3-5.87-1.2-8.73l.05-.06a6.83,6.83,0,0,1,8.45-1.3A6.64,6.64,0,0,1,349.84,138Z" style="fill:#FF725E"></path><path d="M426.26,135.73s-2.16,5-1.42,7.16,8.07.94,8.07.94S435.11,136,426.26,135.73Z" style="fill:#FF725E"></path><g style="opacity:0.2"><path d="M426.26,135.73s-2.16,5-1.42,7.16,8.07.94,8.07.94S435.11,136,426.26,135.73Z"></path></g><path d="M428.55,135c-1.38-.69-3,.55-3.36,2.06-.4,1.84-1,3.88.15,4.53,2,1.12,6.71.55,6.71.55S434.85,138.19,428.55,135Z" style="fill:#FF725E"></path><path d="M429.52,167.74c.45,1.3-1.13,3-2.43,3.47a2.48,2.48,0,0,1-3.16-1.54c-.45-1.29,1.27-4.82,2.56-5.26S429.08,166.45,429.52,167.74Z" style="fill:#FF725E"></path><g style="opacity:0.2"><path d="M357.53,100.07a12.2,12.2,0,0,1-3.09-2.35c-1.75-2.29-.87-6-2.94-8a4.86,4.86,0,0,0-5.42-.49,17.54,17.54,0,0,0-5.48,4.37,48.8,48.8,0,0,0-7.8,15.91c-6.3-1.27-13.21-.6-19.09.71a17.45,17.45,0,0,0-6.16,3.34,4.84,4.84,0,0,0-1.66,5.18c1,2.69,4.78,3.32,6.2,5.83a11.89,11.89,0,0,1,1,3.76,13.44,13.44,0,0,0,4.8,7.91c2.07,1.63,4.85,2.64,7.38,1.9,3-.86,4.81-3.8,6.35-6.5a48.5,48.5,0,0,0,4.82-10.2,20.51,20.51,0,0,0,.73-3.81,19.71,19.71,0,0,0,4.95,1.22,48.47,48.47,0,0,0,11.28-.44c3.09-.37,6.5-.9,8.46-3.31,1.67-2,1.83-5,1.13-7.54A13.33,13.33,0,0,0,357.53,100.07Z"></path></g><path d="M355.94,98.72a11.76,11.76,0,0,1-3.09-2.35c-1.76-2.28-.88-6-2.94-8a4.84,4.84,0,0,0-5.42-.5A17.87,17.87,0,0,0,339,92.26a49.16,49.16,0,0,0-7.8,15.92c-6.29-1.28-13.2-.61-19.08.7a17.68,17.68,0,0,0-6.17,3.35,4.83,4.83,0,0,0-1.66,5.18c1,2.68,4.79,3.32,6.21,5.82a12,12,0,0,1,.95,3.77,13.37,13.37,0,0,0,4.8,7.9c2.07,1.64,4.84,2.65,7.37,1.91,3-.87,4.82-3.8,6.36-6.5a48.54,48.54,0,0,0,4.81-10.21,20.51,20.51,0,0,0,.73-3.81,19.8,19.8,0,0,0,5,1.23,47.85,47.85,0,0,0,11.27-.45c3.09-.36,6.5-.89,8.47-3.31,1.67-2,1.82-5,1.13-7.53A13.4,13.4,0,0,0,355.94,98.72Z" style="fill:#455a64"></path><path d="M331,107.85s.08-.06.26-.14a3.3,3.3,0,0,1,.8-.21,5,5,0,0,1,4.63,2,4.33,4.33,0,0,1,.82,2.34,4.81,4.81,0,0,1-8,4,4.38,4.38,0,0,1-1.39-2.06,5,5,0,0,1-.15-2.14,4.85,4.85,0,0,1,1.35-2.74,3,3,0,0,1,.65-.52c.17-.09.25-.13.26-.12s-.31.25-.76.78a4.92,4.92,0,0,0-1.13,2.64,4.18,4.18,0,0,0,1.47,3.79,4.37,4.37,0,0,0,7.26-3.64,4.19,4.19,0,0,0-2.16-3.44,5,5,0,0,0-2.8-.68C331.34,107.75,331,107.9,331,107.85Z" style="fill:#fff"></path><path d="M329.66,115.18c.06.16-2.87,1.22-6,3.39s-5.18,4.5-5.3,4.39a6.07,6.07,0,0,1,1.26-1.61,23.26,23.26,0,0,1,3.74-3.21,23.66,23.66,0,0,1,4.34-2.35A6.41,6.41,0,0,1,329.66,115.18Z" style="fill:#fff"></path><path d="M327.88,114.52a26,26,0,0,1-3.38.92,30.68,30.68,0,0,1-3.37,1,11.38,11.38,0,0,1,6.75-1.91Z" style="fill:#fff"></path><path d="M344.05,99.65a31.37,31.37,0,0,0-4.52,4.21,29.5,29.5,0,0,0-3.14,5.31,4.76,4.76,0,0,1,.48-1.79,14.79,14.79,0,0,1,2.26-3.85,15,15,0,0,1,3.28-3A5.14,5.14,0,0,1,344.05,99.65Z" style="fill:#fff"></path><path d="M346.62,107.1c0,.16-2.3.54-5.07,1.34s-4.95,1.69-5,1.55a22.18,22.18,0,0,1,10.09-2.89Z" style="fill:#fff"></path><path d="M350,130.75a6.91,6.91,0,0,0-8.5,1.35c-2.1,2.87-1.32,6.42,1.2,8.74a6.4,6.4,0,0,0,9.14-1A6.63,6.63,0,0,0,350,130.75Z" style="opacity:0.2"></path><path d="M360.07,147.73a6.9,6.9,0,0,0-8.5,1.36c-2.1,2.86-1.32,6.41,1.2,8.73a6.4,6.4,0,0,0,9.14-1A6.63,6.63,0,0,0,360.07,147.73Z" style="opacity:0.2"></path><path d="M348,128.85a6.88,6.88,0,0,0-8.5,1.35c-2.1,2.86-1.32,6.41,1.2,8.73a6.4,6.4,0,0,0,9.14-1A6.63,6.63,0,0,0,348,128.85Z" style="fill:#455a64"></path><path d="M358.12,145.83a6.9,6.9,0,0,0-8.5,1.36c-2.1,2.86-1.32,6.41,1.2,8.73a6.4,6.4,0,0,0,9.14-1A6.64,6.64,0,0,0,358.12,145.83Z" style="fill:#ebebeb"></path><g style="opacity:0.30000000000000004"><path d="M321.28,78.31c.35-.23,1.32.63,2.07,2.4a8.85,8.85,0,0,1,.74,3.42,6.05,6.05,0,0,1-.36,2.3,4,4,0,0,1-2,2.25,4.83,4.83,0,0,1-2.75.41,6.83,6.83,0,0,1-2.17-.67,8.65,8.65,0,0,1-2.8-2.14c-1.3-1.55-1.46-2.83-1.11-3s1.19.56,2.55,1.4a11.4,11.4,0,0,0,2.45,1.16,3.61,3.61,0,0,0,2.49.11,1.21,1.21,0,0,0,.57-.62,4.2,4.2,0,0,0,.32-1.3,12,12,0,0,0,0-2.75C321.11,79.59,320.92,78.54,321.28,78.31Z"></path><path d="M304.11,85.31A3,3,0,1,0,307.22,87,3,3,0,0,0,304.11,85.31Z"></path><path d="M322.94,73.46a3,3,0,1,0,1.89-3.83A3,3,0,0,0,322.94,73.46Z"></path></g><path d="M319.24,77.09c.36-.24,1.33.63,2.08,2.4a8.85,8.85,0,0,1,.74,3.42,6.26,6.26,0,0,1-.36,2.3,4.06,4.06,0,0,1-2,2.25,4.84,4.84,0,0,1-2.76.4,7.11,7.11,0,0,1-2.16-.66,8.69,8.69,0,0,1-2.8-2.15c-1.3-1.55-1.46-2.83-1.11-3s1.19.55,2.55,1.39a11.4,11.4,0,0,0,2.45,1.16,3.53,3.53,0,0,0,2.48.11,1.12,1.12,0,0,0,.58-.61,4.57,4.57,0,0,0,.32-1.31,11.9,11.9,0,0,0,0-2.74C319.08,78.36,318.89,77.31,319.24,77.09Z" style="fill:#fff"></path><path d="M302.08,84.09a3,3,0,1,0,3.11,1.7A3,3,0,0,0,302.08,84.09Z" style="fill:#fff"></path><path d="M320.91,72.23a3,3,0,1,0,1.89-3.82A3,3,0,0,0,320.91,72.23Z" style="fill:#fff"></path></g></svg>