<svg xmlns="http://www.w3.org/2000/svg" viewBox="0 0 500 500"><g id="freepik--gingerbread-man-cookie-3--inject-79"><path d="M263.68,313.58s-24.82-11.91-21.54-39.78,29-41.57,43.28-43.1C301,229,330,245.22,329.64,277.76c0,0,1.65,13.73-10.1,29.08,0,0,56.3-27.63,65,1.28,8.82,29.23-29.7,34.36-48.14,43.69s17.81,23.71,34.35,33.35c17.88,10.42,24.85,36.6,6.94,54.28-20.9,20.64-53.73-16.91-62.1-25.53s-12.09-15.31-17.38-1.26-18.07,70.21-60.37,44.4c-32.42-19.78,7.41-49.71,12-71.61s-.33-20.94-22.62-21.72-47.62-10.91-42.57-34.34c4.79-22.23,35.12-12.6,51.68-12.88S263.68,313.58,263.68,313.58Z" style="fill:#FF725E"></path><path d="M263.68,313.58s-24.82-11.91-21.54-39.78,29-41.57,43.28-43.1C301,229,330,245.22,329.64,277.76c0,0,1.65,13.73-10.1,29.08,0,0,56.3-27.63,65,1.28,8.82,29.23-29.7,34.36-48.14,43.69s17.81,23.71,34.35,33.35c17.88,10.42,24.85,36.6,6.94,54.28-20.9,20.64-53.73-16.91-62.1-25.53s-12.09-15.31-17.38-1.26-18.07,70.21-60.37,44.4c-32.42-19.78,7.41-49.71,12-71.61s-.33-20.94-22.62-21.72-47.62-10.91-42.57-34.34c4.79-22.23,35.12-12.6,51.68-12.88S263.68,313.58,263.68,313.58Z" style="opacity:0.30000000000000004"></path><path d="M252.4,305.64s-19.52-13.2-14.87-40.88c3.92-23.35,26.91-33.34,41.15-34.88,15.6-1.69,46.69,6.3,46.35,38.84,0,0,1.65,13.73-10.1,29.09,0,0,57.94-21.5,66.67,7.41,8.83,29.23-31.34,28.22-49.78,37.55s15.59,27.82,32.12,37.46c17.88,10.42,27.08,32.49,9.17,50.18-20.9,20.63-53.73-16.92-62.1-25.54s-12.09-15.31-17.38-1.25-15.89,68.67-56,49.33c-34.21-16.5,3-54.64,7.67-76.55s-.33-20.94-22.62-21.71-43.84-6.72-38.8-30.15c4.8-22.23,31.35-16.79,47.91-17.08S252.4,305.64,252.4,305.64Z" style="fill:#FF725E"></path><path d="M244.48,311c-11.66,0-23.33-.81-34.85,1.55-9.84,2-21.07,9-20.51,20.4s11.44,13.7,20.82,14c6,.17,11.91-.14,17.87-.21,6.29-.07,13.58-.39,19.2,2.88,11.64,6.77,6.42,19.73,2,29-5.11,10.61-10.38,21.21-14.46,32.28-3.74,10.17-5.79,21.22,0,31.21,5.87,10.21,17.47,11.61,26.92,5.56A43.4,43.4,0,0,0,275,433.24c2.69-4.52,3.63-9.33,5.24-14.25a117.75,117.75,0,0,1,6.9-16.73c1.92-3.78,5.18-11.21,9.62-12.82,3.35-1.21,7.61,3.74,9.85,5.76,4.51,4.07,8.8,8.39,13.18,12.62,8.57,8.27,17.9,18.24,30,20.8,11,2.31,22-3.78,24.49-15,2.4-10.57-1.9-23-11.33-28.77-5.07-3.09-11.18-4.46-16.48-7.24a88.48,88.48,0,0,1-17.24-11.71c-4.42-3.9-9.73-9.2-10.59-15.34s4.23-10.37,9.15-12.94c9.25-4.82,19.68-5.55,29.37-9,8.36-3,21.43-8.95,20.7-19.71-.77-11.4-14.14-14-23.34-14.06-13,0-25.56,5.19-38.14,7.87-3.53.75-7.07,1.47-10.62,2.13l1.49,2c11.59-21.18,18-53.65-7.1-67.58-23-12.77-53.37,2.6-57.82,28.16-1.88,10.84,2.34,20.69,7.78,29.86a68.66,68.66,0,0,0,12.48,16c.23-.86.47-1.72.7-2.58l-18.86.26c-1.86,0-1.5,2.89.33,2.86l18.87-.26c1.38,0,1.54-1.82.71-2.57a59.68,59.68,0,0,1-8.93-10.73c-5.39-7.86-10.75-17.38-10.7-27.17A34.68,34.68,0,0,1,260,244.84c10.53-7,23.5-9.82,35.46-4.68,15.81,6.81,21.06,21.47,18.62,37.68a85.8,85.8,0,0,1-9.46,27.91,1.45,1.45,0,0,0,1.49,2c9.29-1.72,18.56-3.7,27.67-6.19,11.1-3,24.87-6.93,35.7-.66,5.8,3.35,7.25,10.29,2.84,15.5-3.94,4.65-10.12,7.35-15.72,9.4-8.79,3.23-18.24,4.07-26.92,7.78-7.25,3.11-15.32,8.78-13.82,17.75,1.67,10,12,17.86,19.8,23.13a95.35,95.35,0,0,0,15.14,8.43c5.87,2.58,11.79,3.87,16,9.17,7.6,9.6,7.76,27.3-4.92,32.84s-25.2-5.27-33.94-13.29c-8-7.39-15.38-15.87-24.09-22.49-2.08-1.59-4.39-3.34-7.14-2.7-3.21.76-5.66,4-7.44,6.54-5.93,8.39-10,18.64-12.79,28.49-3.16,11.3-11.56,24.62-24.16,26.94C237,451.19,231.76,432,234.48,420.47c2.53-10.73,7.7-21,12.39-30.92,3.26-6.86,8-14,9.64-21.53,2.31-10.37-2.85-20.41-13.39-23.1s-22.09-.59-32.77-.88c-4.45-.12-10.33-.09-14.07-2.89-5.95-4.44-5-12.8-.73-18,8.16-9.85,24.13-9.5,35.77-9.59,4.5,0,9,.24,13.49.24C246.67,313.84,246.31,311,244.48,311Z" style="fill:#fff"></path><path d="M246.21,311.75c-11.65,0-23.32-.81-34.84,1.55-9.84,2-21.07,9-20.51,20.4s11.44,13.7,20.82,14c5.95.17,11.91-.14,17.87-.21,6.28-.07,13.58-.39,19.2,2.88,11.64,6.77,6.42,19.73,2,29-5.11,10.61-10.39,21.21-14.46,32.28-3.74,10.17-5.79,21.22-.05,31.21,5.87,10.21,17.47,11.61,26.92,5.56A43.5,43.5,0,0,0,276.75,434c2.69-4.52,3.63-9.33,5.24-14.25a117.27,117.27,0,0,1,6.9-16.73c1.92-3.78,5.18-11.22,9.62-12.82,3.35-1.21,7.61,3.74,9.84,5.76,4.52,4.07,8.81,8.39,13.19,12.62,8.57,8.27,17.9,18.24,30,20.8,11,2.31,21.95-3.78,24.49-15,2.4-10.58-1.9-23-11.33-28.77-5.07-3.09-11.18-4.46-16.48-7.24A88.18,88.18,0,0,1,331,366.67c-4.42-3.9-9.73-9.2-10.59-15.34s4.23-10.37,9.15-12.94c9.25-4.83,19.68-5.55,29.37-9,8.36-3,21.43-9,20.7-19.71-.77-11.4-14.15-14-23.34-14.06-13,0-25.57,5.19-38.14,7.87-3.54.75-7.08,1.47-10.63,2.13l1.5,2c11.59-21.18,18-53.65-7.1-67.58-23-12.77-53.37,2.6-57.82,28.16-1.88,10.84,2.34,20.69,7.78,29.86a68.36,68.36,0,0,0,12.47,16c.24-.85.48-1.71.71-2.57l-18.87.26c-1.85,0-1.49,2.89.34,2.86l18.87-.26c1.38,0,1.54-1.82.71-2.57a60,60,0,0,1-8.93-10.73c-5.39-7.86-10.75-17.38-10.7-27.17a34.68,34.68,0,0,1,15.27-28.27c10.53-7,23.5-9.83,35.46-4.68,15.81,6.81,21.06,21.47,18.62,37.68a85.8,85.8,0,0,1-9.46,27.91,1.44,1.44,0,0,0,1.49,2c9.29-1.72,18.56-3.7,27.66-6.19,11.11-3,24.88-6.93,35.71-.66,5.8,3.35,7.25,10.29,2.84,15.5-3.94,4.65-10.12,7.35-15.72,9.4-8.79,3.23-18.24,4.07-26.92,7.78-7.25,3.11-15.32,8.78-13.82,17.75,1.66,10,12,17.86,19.8,23.13a95.35,95.35,0,0,0,15.14,8.43c5.87,2.58,11.79,3.87,16,9.17,7.61,9.59,7.77,27.3-4.92,32.84s-25.19-5.27-33.93-13.29c-8-7.39-15.38-15.87-24.09-22.49-2.08-1.59-4.4-3.35-7.15-2.7-3.2.76-5.65,4-7.43,6.54-5.93,8.39-10,18.64-12.79,28.49-3.16,11.29-11.56,24.62-24.16,26.93-15.31,2.82-20.59-16.38-17.87-27.9,2.53-10.74,7.69-21,12.39-30.92,3.25-6.86,8-14.05,9.63-21.53,2.31-10.37-2.84-20.41-13.38-23.11s-22.09-.58-32.78-.87c-4.44-.12-10.32-.1-14.06-2.89-6-4.44-5-12.8-.74-18,8.17-9.85,24.13-9.5,35.78-9.59,4.5,0,9,.24,13.49.24C248.4,314.61,248.05,311.75,246.21,311.75Z" style="opacity:0.2"></path><path d="M244.48,311c-11.66,0-23.33-.81-34.85,1.55-9.84,2-21.07,9-20.51,20.4s11.44,13.7,20.82,14c6,.17,11.91-.14,17.87-.21,6.29-.07,13.58-.39,19.2,2.88,11.64,6.77,6.42,19.73,2,29-5.11,10.61-10.38,21.21-14.46,32.28-3.74,10.17-5.79,21.22,0,31.21,5.87,10.21,17.47,11.61,26.92,5.56A43.4,43.4,0,0,0,275,433.24c2.69-4.52,3.63-9.33,5.24-14.25a117.75,117.75,0,0,1,6.9-16.73c1.92-3.78,5.18-11.21,9.62-12.82,3.35-1.21,7.61,3.74,9.85,5.76,4.51,4.07,8.8,8.39,13.18,12.62,8.57,8.27,17.9,18.24,30,20.8,11,2.31,22-3.78,24.49-15,2.4-10.57-1.9-23-11.33-28.77-5.07-3.09-11.18-4.46-16.48-7.24a88.48,88.48,0,0,1-17.24-11.71c-4.42-3.9-9.73-9.2-10.59-15.34s4.23-10.37,9.15-12.94c9.25-4.82,19.68-5.55,29.37-9,8.36-3,21.43-8.95,20.7-19.71-.77-11.4-14.14-14-23.34-14.06-13,0-25.56,5.19-38.14,7.87-3.53.75-7.07,1.47-10.62,2.13l1.49,2c11.59-21.18,18-53.65-7.1-67.58-23-12.77-53.37,2.6-57.82,28.16-1.88,10.84,2.34,20.69,7.78,29.86a68.66,68.66,0,0,0,12.48,16c.23-.86.47-1.72.7-2.58l-18.86.26c-1.86,0-1.5,2.89.33,2.86l18.87-.26c1.38,0,1.54-1.82.71-2.57a59.68,59.68,0,0,1-8.93-10.73c-5.39-7.86-10.75-17.38-10.7-27.17A34.68,34.68,0,0,1,260,244.84c10.53-7,23.5-9.82,35.46-4.68,15.81,6.81,21.06,21.47,18.62,37.68a85.8,85.8,0,0,1-9.46,27.91,1.45,1.45,0,0,0,1.49,2c9.29-1.72,18.56-3.7,27.67-6.19,11.1-3,24.87-6.93,35.7-.66,5.8,3.35,7.25,10.29,2.84,15.5-3.94,4.65-10.12,7.35-15.72,9.4-8.79,3.23-18.24,4.07-26.92,7.78-7.25,3.11-15.32,8.78-13.82,17.75,1.67,10,12,17.86,19.8,23.13a95.35,95.35,0,0,0,15.14,8.43c5.87,2.58,11.79,3.87,16,9.17,7.6,9.6,7.76,27.3-4.92,32.84s-25.2-5.27-33.94-13.29c-8-7.39-15.38-15.87-24.09-22.49-2.08-1.59-4.39-3.34-7.14-2.7-3.21.76-5.66,4-7.44,6.54-5.93,8.39-10,18.64-12.79,28.49-3.16,11.3-11.56,24.62-24.16,26.94C237,451.19,231.76,432,234.48,420.47c2.53-10.73,7.7-21,12.39-30.92,3.26-6.86,8-14,9.64-21.53,2.31-10.37-2.85-20.41-13.39-23.1s-22.09-.59-32.77-.88c-4.45-.12-10.33-.09-14.07-2.89-5.95-4.44-5-12.8-.73-18,8.16-9.85,24.13-9.5,35.77-9.59,4.5,0,9,.24,13.49.24C246.67,313.84,246.31,311,244.48,311Z" style="fill:#fff"></path><path d="M283.92,342.83c-3.78,2-4.71,6.32-3.1,10.11a7.59,7.59,0,0,0,10.37,3.41,7.87,7.87,0,0,0,2.48-10.74,8.18,8.18,0,0,0-10.9-2.18" style="opacity:0.30000000000000004"></path><path d="M286.51,366.17c-3.77,2-4.7,6.32-3.1,10.11a7.61,7.61,0,0,0,10.37,3.42A7.89,7.89,0,0,0,296.27,369a8.17,8.17,0,0,0-10.91-2.18" style="opacity:0.30000000000000004"></path><path d="M283.92,340.45c-3.78,2.05-4.71,6.32-3.1,10.11A7.6,7.6,0,0,0,291.19,354a7.87,7.87,0,0,0,2.48-10.74,8.18,8.18,0,0,0-10.9-2.18" style="fill:#455a64"></path><path d="M286.51,363.8c-3.77,2-4.7,6.32-3.1,10.11a7.6,7.6,0,0,0,10.37,3.41,7.88,7.88,0,0,0,2.49-10.74,8.19,8.19,0,0,0-10.91-2.18" style="fill:#263238"></path><g style="opacity:0.30000000000000004"><path d="M269.81,277.29a3.58,3.58,0,1,1-3.21-3.92A3.57,3.57,0,0,1,269.81,277.29Z"></path><path d="M300.62,270.66a3.58,3.58,0,1,1-3.2-3.92A3.59,3.59,0,0,1,300.62,270.66Z"></path><path d="M291.46,275.08a2.89,2.89,0,0,1,2.12,1.5,6,6,0,0,1,.58,3.86,10.44,10.44,0,0,1-2.37,5.13,12.57,12.57,0,0,1-13.37,3.88,10.33,10.33,0,0,1-4.76-3.06,6,6,0,0,1-1.58-3.56,2.93,2.93,0,0,1,1-2.41c1.32-1.08,3.19-1.2,4.84-1.57a40.89,40.89,0,0,0,4.35-1.09,38,38,0,0,0,4.25-1.41C288.12,275.78,289.76,274.88,291.46,275.08Z"></path></g><path d="M268.54,276a3.58,3.58,0,1,1-3.21-3.92A3.59,3.59,0,0,1,268.54,276Z" style="fill:#fff"></path><path d="M299.35,269.39a3.58,3.58,0,1,1-3.2-3.92A3.59,3.59,0,0,1,299.35,269.39Z" style="fill:#fff"></path><path d="M290.19,273.82a2.88,2.88,0,0,1,2.13,1.49,6.09,6.09,0,0,1,.58,3.86,10.38,10.38,0,0,1-2.38,5.13,12.52,12.52,0,0,1-13.37,3.88,10.45,10.45,0,0,1-4.76-3.05,6,6,0,0,1-1.58-3.57,2.93,2.93,0,0,1,1-2.41c1.32-1.08,3.19-1.2,4.84-1.57a40.89,40.89,0,0,0,4.35-1.09,38.77,38.77,0,0,0,4.26-1.41C286.85,274.51,288.49,273.61,290.19,273.82Z" style="fill:#fff"></path><g style="opacity:0.30000000000000004"><path d="M314.53,310.49c-.92-1.35-2.84-1.42-4.47-1.32-12.24.75-24.25,3.55-36.19,6.34-2.71.64-5.54,1.33-7.64,3.17-3.52,3.08-3.92,8.33-4.06,13l-2.84,11.51a7.9,7.9,0,0,0,14.57,3.28c1.81-2.93,2.23-9.44,4.66-11.88,1.64-1.67,2.67-1.93,4.95-2.47,11.72-2.78,24.22-6.52,30.38-16.87C314.76,313.81,315.5,311.89,314.53,310.49Z"></path></g><path d="M296.28,238.14c.17,0,.58,1.3,1,3.79a31.19,31.19,0,0,1,.48,4.61,18.9,18.9,0,0,1-.79,6.23,14.5,14.5,0,0,1-4.22,6.5,14.74,14.74,0,0,1-8.18,3.66,15.06,15.06,0,0,1-9.64-2.3A14.1,14.1,0,0,1,271,257a7.76,7.76,0,0,1-1.56-5.7,5.87,5.87,0,0,1,1.36-2.92,4.72,4.72,0,0,1,3-1.59,5.28,5.28,0,0,1,3.16.66,6,6,0,0,1,2.21,2.13,7.28,7.28,0,0,1,.58,5.57,10.33,10.33,0,0,1-2.55,4.41,12.21,12.21,0,0,1-8.27,3.67,13.65,13.65,0,0,1-7.52-2.05,14.94,14.94,0,0,1-4.56-4.4,16.48,16.48,0,0,1-2-4.26c-.74-2.47-.66-3.91-.51-3.92s.47,1.33,1.46,3.57a17.82,17.82,0,0,0,2.26,3.75,14,14,0,0,0,4.31,3.66,12,12,0,0,0,6.48,1.49,10.17,10.17,0,0,0,6.64-3.15,8,8,0,0,0,1.88-3.4,4.81,4.81,0,0,0-.36-3.62,3.17,3.17,0,0,0-2.87-1.54A2.67,2.67,0,0,0,272,251.7a5.3,5.3,0,0,0,1.12,3.77,11.92,11.92,0,0,0,3.19,3,12.79,12.79,0,0,0,18.92-6.32,19,19,0,0,0,1.08-5.65c.09-1.72,0-3.24,0-4.48C296.16,239.56,296.09,238.16,296.28,238.14Z" style="fill:#fff"></path><path d="M217.06,312.42c.08.18-.36.48-.65,1.23a3.5,3.5,0,0,0-.22,1.42,5,5,0,0,0,.5,1.87c.3.71.75,1.48,1.2,2.46a7,7,0,0,1,.71,3.66,4.9,4.9,0,0,1-.81,2.11,11.28,11.28,0,0,1-1.29,1.54c-.88.87-1.68,1.75-1.66,2.27a1.41,1.41,0,0,0,.33.95c.27.41.71.89,1.11,1.53a4.43,4.43,0,0,1,.7,2.35,5.64,5.64,0,0,1-.43,2.12,12,12,0,0,1-1.83,2.93,11.18,11.18,0,0,0-1.35,2.1,2.9,2.9,0,0,0,.28,3c.46.61,1,.67,1,.87s-.12.19-.42.23a1.85,1.85,0,0,1-1.26-.33,3.44,3.44,0,0,1-1.27-1.61,4.21,4.21,0,0,1-.28-1.29,4.76,4.76,0,0,1,.19-1.46c.51-2,2.12-3.56,2.67-5.27a3.53,3.53,0,0,0,.2-1.24,2,2,0,0,0-.37-1c-.24-.38-.66-.81-1.1-1.44a3.94,3.94,0,0,1-.78-2.62,4.44,4.44,0,0,1,1.06-2.42,17.53,17.53,0,0,1,1.38-1.43,4.62,4.62,0,0,0,1.54-2.2,5.36,5.36,0,0,0-.35-2.53c-.3-.87-.69-1.75-.93-2.64a5.9,5.9,0,0,1-.21-2.61,3.83,3.83,0,0,1,.81-1.83C216.32,312.24,217,312.27,217.06,312.42Z" style="fill:#fff"></path><path d="M223.66,313.17c.17-.07.51.29,1,1a16.8,16.8,0,0,1,1.66,3.3,12.23,12.23,0,0,1,.8,5.68,8.91,8.91,0,0,1-1.11,3.42c-.63,1.08-1.39,2-2,2.82a3.33,3.33,0,0,0-.75,2.23c.06.66.68,1.59,1,2.9a6.09,6.09,0,0,1-.44,3.38c-.34.88-.71,1.62-.94,2.24a4.43,4.43,0,0,0-.15,3c.24.64.65.92.57,1.1s-.68.24-1.41-.54a4.7,4.7,0,0,1-.79-4c.18-.84.46-1.63.67-2.44a4.19,4.19,0,0,0,.15-2.19,7.19,7.19,0,0,0-.5-1.19,7.34,7.34,0,0,1-.64-1.82,4.71,4.71,0,0,1,.18-2.24,7.64,7.64,0,0,1,.92-1.83c.71-1.06,1.45-1.89,1.93-2.68a7.07,7.07,0,0,0,.93-2.47,12.36,12.36,0,0,0-.19-4.82c-.29-1.41-.64-2.58-.82-3.41S223.5,313.24,223.66,313.17Z" style="fill:#fff"></path><path d="M346.57,330.77c0,.08-.19.12-.47,0a2,2,0,0,1-1-.76,4.14,4.14,0,0,1-.71-1.81,9.61,9.61,0,0,1,0-2.4,5.53,5.53,0,0,0-.17-2.23c-.23-.58-.7-.94-1.64-1.33a8.48,8.48,0,0,1-3.39-2,3.38,3.38,0,0,1-.89-2.67,5.27,5.27,0,0,1,1-2.23,3.45,3.45,0,0,0,.63-1.16,1,1,0,0,0-.21-.78c-.43-.69-1.45-1.49-2.19-2.52a10.68,10.68,0,0,1-2-6,8.91,8.91,0,0,1,.85-4.1c.45-.89.88-1.26,1-1.18.38.16-.51,2.09,0,5.12a10,10,0,0,0,2.08,4.7,10.48,10.48,0,0,0,1.05,1.08,9.24,9.24,0,0,1,1.36,1.49,3.54,3.54,0,0,1,.64,2.65,5.65,5.65,0,0,1-1,2.16,3.21,3.21,0,0,0-.59,1.11.81.81,0,0,0,.24.66,7.15,7.15,0,0,0,2.48,1.47,6.36,6.36,0,0,1,1.62,1.08,4.12,4.12,0,0,1,1.07,1.78,6.82,6.82,0,0,1-.07,3.13,12.54,12.54,0,0,0-.35,2.05,4,4,0,0,0,.15,1.42C346.2,330.3,346.65,330.58,346.57,330.77Z" style="fill:#fff"></path><path d="M355.3,327.5c-.08.11-.68,0-1.23-.9a4.8,4.8,0,0,1-.59-1.68,16.35,16.35,0,0,1-.15-2.18,13.63,13.63,0,0,0-.17-2.32,2.87,2.87,0,0,0-.36-1,1.39,1.39,0,0,0-.28-.35,1.92,1.92,0,0,0-.39-.33c-.33-.22-.78-.45-1.3-.78a3.73,3.73,0,0,1-1.59-1.8,3.08,3.08,0,0,1-.15-1.42,6.86,6.86,0,0,1,.22-1,4.46,4.46,0,0,0,.12-.6,2,2,0,0,0,0-.54,4.91,4.91,0,0,0-1.34-2.3c-.69-.74-1.52-1.46-2.26-2.34a8.88,8.88,0,0,1-2-5.67,7.77,7.77,0,0,1,.95-3.84c.48-.8.91-1.12,1.05-1,.36.18-.58,1.95-.17,4.74a7.87,7.87,0,0,0,2,4.21c.62.66,1.44,1.3,2.3,2.17a7,7,0,0,1,2.06,3.58,4.87,4.87,0,0,1,.07,1.21,5.41,5.41,0,0,1-.21,1.09c-.19.61-.2.83-.17.9a1.44,1.44,0,0,0,.57.59c.37.26.84.53,1.34.91a4.24,4.24,0,0,1,1.27,1.54,4.79,4.79,0,0,1,.47,1.72,11.57,11.57,0,0,1-.13,2.73,10.81,10.81,0,0,0-.16,3.37C355.15,326.94,355.44,327.34,355.3,327.5Z" style="fill:#fff"></path><path d="M275.16,430.9c-.11.17-.71-.11-1.8-.09a8.51,8.51,0,0,0-2,.3c-.76.2-1.61.54-2.64.9a10.13,10.13,0,0,1-3.72.75,8.18,8.18,0,0,1-4.33-1.4c-2.63-1.69-4.52-4.31-7-5.81a6.77,6.77,0,0,0-3.8-1.05c-1.37,0-2.81.27-4.29.39a10.85,10.85,0,0,1-4.37-.38,9.75,9.75,0,0,1-3.36-1.84,8.15,8.15,0,0,1-2.85-4.58c-.24-1.27,0-2,.14-2s.34.65.82,1.65a8.68,8.68,0,0,0,3,3.43,8.77,8.77,0,0,0,2.83,1.23,9.23,9.23,0,0,0,3.54.08,43.92,43.92,0,0,1,4.49-.56,9.09,9.09,0,0,1,5.2,1.38,20.64,20.64,0,0,1,3.84,3.23,25.61,25.61,0,0,0,3.1,2.8,6.29,6.29,0,0,0,3.1,1.25,9.9,9.9,0,0,0,3.1-.36,21.27,21.27,0,0,1,2.91-.57,7,7,0,0,1,2.35.13C274.78,430.14,275.26,430.78,275.16,430.9Z" style="fill:#fff"></path><path d="M277.71,420.36c-.13.16-.68-.18-1.71-.32a10.1,10.1,0,0,0-4.41.62,30.42,30.42,0,0,1-3.31.95,7.5,7.5,0,0,1-4.42-.27,10.33,10.33,0,0,1-3.69-3,12.42,12.42,0,0,0-2.95-2.81,5.52,5.52,0,0,0-3.61-.39,29.32,29.32,0,0,1-4.37.54,12,12,0,0,1-7.28-2.58,10.54,10.54,0,0,1-3.2-4c-.47-1.12-.49-1.8-.35-1.86s.54.48,1.22,1.34a13.15,13.15,0,0,0,3.38,3,11.08,11.08,0,0,0,6.19,1.69,35,35,0,0,0,4-.66,10.78,10.78,0,0,1,2.53-.16,6.38,6.38,0,0,1,2.73.79,13.47,13.47,0,0,1,3.62,3.42,8.64,8.64,0,0,0,2.72,2.45,5.42,5.42,0,0,0,3.11.34c1.1-.13,2.17-.4,3.2-.6a8.89,8.89,0,0,1,5.15.18C277.46,419.58,277.82,420.26,277.71,420.36Z" style="fill:#fff"></path><path d="M361.69,387.93c.11.16-.38.61-.8,1.62a8.77,8.77,0,0,0-.5,1.93c-.12.77-.14,1.68-.21,2.77a10.46,10.46,0,0,1-.79,3.72,8.21,8.21,0,0,1-3,3.42c-2.59,1.74-5.75,2.44-8.09,4.1a6.77,6.77,0,0,0-2.47,3.07c-.53,1.26-.86,2.69-1.33,4.09a11,11,0,0,1-2.08,3.87,9.75,9.75,0,0,1-3,2.35,8.17,8.17,0,0,1-5.33.81c-1.26-.29-1.81-.77-1.75-.91s.73,0,1.84-.1a8.74,8.74,0,0,0,6.59-3.51,9.39,9.39,0,0,0,1.47-3.22,43.39,43.39,0,0,1,1.26-4.34,9.14,9.14,0,0,1,3.33-4.24,21,21,0,0,1,4.48-2.24,26.63,26.63,0,0,0,3.8-1.74,6.17,6.17,0,0,0,2.37-2.36,9.78,9.78,0,0,0,.9-3,21.07,21.07,0,0,1,.63-2.9,7,7,0,0,1,1-2.1C360.84,388,361.62,387.79,361.69,387.93Z" style="fill:#fff"></path><path d="M353,381.42c.09.18-.44.55-1,1.44a10.24,10.24,0,0,0-1.17,4.3,32,32,0,0,1-.43,3.41,7.5,7.5,0,0,1-2,3.95,10.23,10.23,0,0,1-4.2,2.21,12.46,12.46,0,0,0-3.75,1.6,5.51,5.51,0,0,0-1.78,3.17,30.08,30.08,0,0,1-1.24,4.22,11.94,11.94,0,0,1-5.25,5.67,10.62,10.62,0,0,1-4.93,1.36c-1.21,0-1.85-.26-1.84-.42s.64-.3,1.71-.59a13.31,13.31,0,0,0,4.1-1.92,11,11,0,0,0,4-5,33.81,33.81,0,0,0,1-3.95,10.68,10.68,0,0,1,.85-2.38,6.44,6.44,0,0,1,1.81-2.2,13.71,13.71,0,0,1,4.57-2,8.6,8.6,0,0,0,3.33-1.53,5.53,5.53,0,0,0,1.54-2.72c.32-1.06.49-2.15.71-3.18a9,9,0,0,1,2.21-4.66C352.21,381.34,353,381.28,353,381.42Z" style="fill:#fff"></path><path d="M253.12,283.7a3.17,3.17,0,0,1-.52-.75,18.5,18.5,0,0,1-1.11-2.21,25.45,25.45,0,0,1-2-7.92,25.72,25.72,0,0,1,.65-8.14,16.48,16.48,0,0,1,.74-2.36,3.32,3.32,0,0,1,.38-.83c.09,0-.35,1.25-.76,3.27a28.18,28.18,0,0,0,1.3,15.84C252.57,282.53,253.2,283.65,253.12,283.7Z" style="fill:#fff"></path><path d="M257.29,291.38c-.14,0-.38-.61-.85-1.25s-1-1.07-.92-1.2.79.14,1.34.89S257.43,291.36,257.29,291.38Z" style="fill:#fff"></path><path d="M186.57,335.79a3.49,3.49,0,0,1-.3-.9,16.11,16.11,0,0,1-.49-2.54,22.77,22.77,0,0,1-.15-3.83,26.31,26.31,0,0,1,.69-4.65,25.94,25.94,0,0,1,1.6-4.42,21.31,21.31,0,0,1,1.94-3.31,16.16,16.16,0,0,1,1.62-2,3.64,3.64,0,0,1,.7-.65c.07.07-.85,1.05-2,2.85a26.51,26.51,0,0,0-1.81,3.31,25.74,25.74,0,0,0-2.24,8.9,27.34,27.34,0,0,0,0,3.77C186.33,334.46,186.67,335.76,186.57,335.79Z" style="fill:#fff"></path><path d="M192.32,344a7,7,0,0,1-3.79-4.63c.14-.06.74,1.14,1.78,2.41S192.41,343.84,192.32,344Z" style="fill:#fff"></path><path d="M243.92,405.13a31,31,0,0,1,1.54-3c1-1.83,2.23-4.39,3.6-7.23s2.63-5.41,3.61-7.24a19.12,19.12,0,0,1,1.7-2.9,24.13,24.13,0,0,1-1.38,3.06l-3.46,7.31c-1.37,2.84-2.69,5.39-3.75,7.18-.52.89-1,1.6-1.3,2.08S244,405.15,243.92,405.13Z" style="fill:#fff"></path><path d="M242.42,440.8a5.56,5.56,0,0,1-1.41-1.45,15.14,15.14,0,0,1-3.06-9.16,5.48,5.48,0,0,1,.25-2,19.8,19.8,0,0,0,4.22,12.61Z" style="fill:#fff"></path><path d="M281.19,377.58a5.42,5.42,0,0,1-1.22-1.95,10.84,10.84,0,0,1-.7-2.41,11.69,11.69,0,0,1,.65-6.08,10.75,10.75,0,0,1,1.2-2.21,5.46,5.46,0,0,1,1.61-1.64c.06.07-.57.67-1.3,1.85a12.12,12.12,0,0,0-1.12,10.36C280.78,376.8,281.27,377.53,281.19,377.58Z" style="fill:#fff"></path><path d="M279.57,352.32a4.13,4.13,0,0,1-.95-1.58,9.64,9.64,0,0,1-.62-4.42,9.51,9.51,0,0,1,1.42-4.23,4.09,4.09,0,0,1,1.22-1.38,14.72,14.72,0,0,1-.9,1.57,10.74,10.74,0,0,0-.77,8.33A14.81,14.81,0,0,1,279.57,352.32Z" style="fill:#fff"></path><path d="M311.41,300c-1.3-1.55-2.73-3.19-4.69-3.72-2.58-.69-5.18.72-7.55,1.93a62.36,62.36,0,0,1-32.81,6.61c-3.6-.85-3.86-1.85-6.62-.41a11.32,11.32,0,0,0-5.35,7.36,8.87,8.87,0,0,0,.35,6.24,10.6,10.6,0,0,0,4.67,4.1c.75.41,1.52.79,2.29,1.15-1.32,4.66-2.6,10.12-4,13.67a7.32,7.32,0,0,0-.75,4.18c.4,1.86,2.12,3.09,3.7,4.13,2.22,1.47,4.91,3,7.39,2,2.14-.84,3.19-3.2,4-5.34q2.87-7.29,5.71-14.58a43.56,43.56,0,0,0,9.2-.39,44.37,44.37,0,0,0,24.92-12.78c1.57-1.6,3.07-3.46,3.35-5.69C315.66,305.29,313.47,302.43,311.41,300Z" style="fill:#455a64"></path><path d="M270.91,343.53a8.11,8.11,0,0,1-2.11-.33,31.45,31.45,0,0,1-4.91-1.56,22,22,0,0,1-4.52-2.51,6.24,6.24,0,0,1-1.58-1.44,42.68,42.68,0,0,0,6.3,3.47C267.77,342.67,271,343.36,270.91,343.53Z" style="fill:#fff"></path><path d="M274.05,337.07a8.78,8.78,0,0,1-2.27-.33,49.9,49.9,0,0,1-10.45-3.5,8.92,8.92,0,0,1-2-1.1,11.32,11.32,0,0,1,2.16.76c1.3.51,3.12,1.2,5.15,1.88s3.89,1.22,5.24,1.6A11.37,11.37,0,0,1,274.05,337.07Z" style="fill:#fff"></path><path d="M276.09,331.09a8.69,8.69,0,0,1-2.35-.23,44,44,0,0,1-10.81-3.5,8.88,8.88,0,0,1-2-1.19,13.14,13.14,0,0,1,2.19.85c1.34.56,3.21,1.26,5.3,1.94s4,1.2,5.43,1.54A14.07,14.07,0,0,1,276.09,331.09Z" style="fill:#fff"></path><path d="M261.55,322.09a1.94,1.94,0,0,1-.26-.67,12.36,12.36,0,0,1-.43-1.92,18.82,18.82,0,0,1,.19-6.49,18.45,18.45,0,0,1,2.38-6,12.26,12.26,0,0,1,1.14-1.6c.3-.36.48-.54.51-.52s-.55.87-1.34,2.3a21.58,21.58,0,0,0-2.18,6,21.28,21.28,0,0,0-.33,6.33C261.39,321.08,261.64,322.07,261.55,322.09Z" style="fill:#fff"></path><path d="M272.91,324.72a2.43,2.43,0,0,1-.31-.71,17,17,0,0,1-.55-2A24.65,24.65,0,0,1,273,308.3a14.77,14.77,0,0,1,.83-1.93c.22-.45.36-.68.4-.67s-.36,1-.88,2.71a28.81,28.81,0,0,0-.93,13.51C272.7,323.64,273,324.69,272.91,324.72Z" style="fill:#fff"></path><path d="M284.15,325.9a13.57,13.57,0,0,1-.95-3,51.74,51.74,0,0,1-1.46-15.15,14.43,14.43,0,0,1,.36-3.14,27.17,27.17,0,0,1,0,3.15,73.72,73.72,0,0,0,.32,7.57,74.58,74.58,0,0,0,1.13,7.49A29.1,29.1,0,0,1,284.15,325.9Z" style="fill:#fff"></path><path d="M297.23,322a17.49,17.49,0,0,1-1.13-2.79c-.71-1.88-1.58-4.21-2.54-6.78s-1.92-4.86-2.65-6.74a17.67,17.67,0,0,1-1-2.82,16.77,16.77,0,0,1,1.37,2.68c.77,1.69,1.77,4.05,2.79,6.7s1.85,5.07,2.41,6.84A17.85,17.85,0,0,1,297.23,322Z" style="fill:#fff"></path><path d="M307.49,318.14c-.08,0-.35-1.18-.92-3.06a49.34,49.34,0,0,0-2.77-7.15,50.7,50.7,0,0,0-3.88-6.61,30.58,30.58,0,0,1-1.83-2.62s.25.19.62.6.9,1,1.5,1.8A38.8,38.8,0,0,1,306.93,315c.24,1,.4,1.75.48,2.3A2.44,2.44,0,0,1,307.49,318.14Z" style="fill:#fff"></path><path d="M283.51,327a4.34,4.34,0,0,1-1,.2c-.63.1-1.56.19-2.7.25a38.34,38.34,0,0,1-8.94-.65,37.82,37.82,0,0,1-8.54-2.74,26.46,26.46,0,0,1-2.41-1.24c-.55-.33-.85-.52-.83-.56s1.29.59,3.39,1.47a45.65,45.65,0,0,0,8.49,2.56,45,45,0,0,0,8.83.79C282.09,327,283.5,326.87,283.51,327Z" style="fill:#263238"></path></g></svg>