<svg xmlns="http://www.w3.org/2000/svg" viewBox="0 0 500 500"><g id="freepik--gingerbread-man-cookie-1--inject-79"><path d="M123.22,154.74s-13.92-22.28,3-43.37S172.6,95.2,185,101.23c13.6,6.61,27.6,31.76,10.66,58.17,0,0-5.67,12.06-23.13,18.59,0,0,56.06,1.68,51.52,30.44-5.53,35-40.91,16.75-60.75,14.93s1.94,27,10.51,43.32c9.27,17.66,2,44.12-21.65,49.4-27.63,6.15-35.22-41.32-37.65-52.65s-2-18.7-13.55-9.92-48.14,48-71,11.62c-4.55-7.22-4.84-21.67-3.16-27.13,5.54-17.93,37.12-19.56,48.61-31.46,15-15.52,10.45-17.28-7.35-29.32s-31.11-30.13-17.5-51c12-18.36,35.44,8.82,49.11,17.07S123.22,154.74,123.22,154.74Z" style="fill:#FF725E"></path><path d="M123.22,154.74s-13.92-22.28,3-43.37S172.6,95.2,185,101.23c13.6,6.61,27.6,31.76,10.66,58.17,0,0-5.67,12.06-23.13,18.59,0,0,56.06,1.68,51.52,30.44-5.53,35-40.91,16.75-60.75,14.93s1.94,27,10.51,43.32c9.27,17.66,2,44.12-21.65,49.4-27.63,6.15-35.22-41.32-37.65-52.65s-2-18.7-13.55-9.92-48.14,48-71,11.62c-4.55-7.22-4.84-21.67-3.16-27.13,5.54-17.93,37.12-19.56,48.61-31.46,15-15.52,10.45-17.28-7.35-29.32s-31.11-30.13-17.5-51c12-18.36,35.44,8.82,49.11,17.07S123.22,154.74,123.22,154.74Z" style="opacity:0.30000000000000004"></path><path d="M118.33,142.63s-8.17-19.91,8.78-41,38.25-12.77,50.67-6.73c13.61,6.61,35.71,28.35,18.77,54.76,0,0-5.67,12.06-23.13,18.59,0,0,58.33,12.1,50.66,40.18-7.76,28.4-40.05,7-59.89,5.19s-1.51,30.7,7.07,47c9.27,17.67,5.48,40.4-18.21,45.68-27.63,6.15-35.22-41.32-37.65-52.65s-2-18.7-13.55-9.93-48.14,48-71,11.63c-19.5-31,30.46-43.07,45.45-58.59S86.75,179.52,69,167.48,36.57,139.55,52.69,123c15.3-15.7,34.2,2.33,47.87,10.58S118.33,142.63,118.33,142.63Z" style="fill:#FF725E"></path><path d="M208.49,185.19c-10.46-6.51-23.11-8.68-34.59-12.85-2.56-.94-5.12-1.9-7.66-2.88,16.1-9.73,34.62-27.59,30.24-47.68-6.42-29.42-45.83-38-65.38-16.45-7.67,8.46-9.1,19.87-9,30.89a71.3,71.3,0,0,0,1.22,13.65l-12.59-7.66c-9.07-5.69-17.75-11.91-27.72-16-9.37-3.87-22.85-4.94-28.83,5.21-5.58,9.48,1.71,16.91,9.17,22,5.23,3.55,10.79,6.57,16.16,9.9,5.12,3.17,11.26,6.76,13.77,12.52,4.48,10.29-4.25,17.78-11.94,22.65-9.61,6.09-19.35,12-28.46,18.82-8.29,6.22-15.71,13.28-17.41,24s5.18,20,16.2,20.92c12.08,1,22.3-4.45,31-12.14a110,110,0,0,1,13.58-10.15c4.3-2.76,9.74-6.42,15-6.94,4.54-.46,5.27,4.33,6.35,7.89,1.79,5.91,3.12,11.95,4.61,17.94,2.78,11.24,5.19,24.3,13.67,32.83,7.46,7.5,19.18,8.87,27.29,1.53,7.05-6.38,10.38-17.23,7.74-26.4-1.58-5.51-5.67-9.43-8.75-14.1a88.17,88.17,0,0,1-9.19-18.31c-3.61-9.9-7.14-26.84,7.92-27.92,10.49-.74,20.42,4.32,30.24,7.15,8.62,2.48,23.7,4.8,29.19-4.56C226,199.29,216.09,189.91,208.49,185.19Zm.94,27.35c-5.76,1-12.32,0-17.89-1.7-8.74-2.6-17.19-6.4-26.4-7.1-7.62-.58-15.58,1.62-17.67,9.85-2.58,10.16,2.42,22.11,6.86,31a84.06,84.06,0,0,0,8.38,13.69c3.91,5.09,6.73,9.94,6.23,16.62-.81,10.83-9.58,22.57-21.62,20.17-13-2.6-17.37-17.68-20.36-28.72-2.76-10.15-4.31-21-8.27-30.81-2.89-7.15-8.81-5.84-15-3a94.13,94.13,0,0,0-24.59,17c-8.06,7.57-24.62,14.43-35,7.53-11.4-7.55-5.19-23.83,2.8-31.35,7.66-7.23,16.9-12.92,25.75-18.56,6.22-4,14-7.48,19-13,6.08-6.73,7.37-16.47,1.41-23.71-6.64-8.07-17.62-12.44-26.23-18-3.9-2.51-9.23-5.61-11.16-10.07-2.81-6.51,2-12.94,7.95-15.16,11.6-4.33,24.75,4.19,34.25,10,3.75,2.3,7.33,4.86,11,7.2l15.55,9.44a1.4,1.4,0,0,0,2.13-1.61A55.65,55.65,0,0,1,125,140.83c-.59-9.11-.3-19.85,4.17-28,6.19-11.29,18.58-17.33,31.12-16.81,15.66.65,29.85,10.19,33.45,26.12,2.73,12-4.16,23.23-12.21,31.54a93,93,0,0,1-19,14.77,1.41,1.41,0,0,0,0,2.57c8.73,3.45,17.59,6.71,26.6,9.34,10.38,3,23.79,7.33,28.87,18C221.36,205.32,216.54,211.37,209.43,212.54Z" style="opacity:0.2"></path><path d="M109.38,143.1c-9.07-5.7-17.75-11.92-27.72-16-9.38-3.87-22.85-4.94-28.83,5.21-5.58,9.48,1.71,16.92,9.16,22,5.24,3.54,10.8,6.56,16.17,9.89,5.11,3.17,11.25,6.77,13.76,12.52,4.48,10.29-4.24,17.79-11.93,22.66-9.61,6.08-19.35,12-28.46,18.82-8.29,6.21-15.72,13.27-17.41,24s5.18,20.05,16.2,20.93c12.08.95,22.29-4.46,31-12.15A111,111,0,0,1,94.9,240.8c4.31-2.75,9.75-6.42,15-6.94,4.54-.45,5.27,4.33,6.35,7.89,1.79,5.91,3.12,11.95,4.6,17.94,2.79,11.25,5.2,24.3,13.68,32.83,7.46,7.5,19.17,8.87,27.29,1.53,7.05-6.37,10.38-17.23,7.74-26.39-1.59-5.51-5.67-9.43-8.75-14.11a88.21,88.21,0,0,1-9.2-18.31c-3.61-9.9-7.13-26.84,7.93-27.91,10.49-.75,20.42,4.31,30.24,7.14,8.62,2.49,23.69,4.8,29.19-4.56,5.7-9.74-4.2-19.11-11.79-23.84-10.46-6.51-23.12-8.68-34.59-12.85-3.45-1.26-6.9-2.55-10.31-3.9,0,.86,0,1.72,0,2.58,16.63-9.31,37.52-28,32.9-49.24-6.42-29.42-45.83-38-65.38-16.45-7.67,8.47-9.11,19.88-9,30.89a63.71,63.71,0,0,0,2,17.06l2.13-1.62-15.54-9.44c-1.51-.92-3.23,1.26-1.7,2.19l15.54,9.45a1.4,1.4,0,0,0,2.14-1.62,55,55,0,0,1-1.69-11.41c-.6-9.11-.3-19.85,4.17-28C134,102.41,146.42,96.38,159,96.9c15.67.64,29.85,10.19,33.46,26.11,2.73,12-4.17,23.24-12.22,31.55a93.22,93.22,0,0,1-19,14.76,1.41,1.41,0,0,0,0,2.57c8.73,3.45,17.59,6.71,26.6,9.34,10.37,3,23.79,7.33,28.87,18,3.35,7-1.46,13.05-8.57,14.23-5.76.95-12.32-.05-17.89-1.71-8.74-2.6-17.2-6.39-26.4-7.1-7.62-.58-15.58,1.62-17.67,9.85-2.59,10.16,2.42,22.12,6.86,31a83.28,83.28,0,0,0,8.38,13.68c3.91,5.1,6.72,9.95,6.23,16.63C166.82,286.63,158,298.37,146,296c-13-2.59-17.37-17.68-20.37-28.72-2.76-10.15-4.31-21-8.26-30.8-2.9-7.16-8.81-5.85-14.95-3a94.37,94.37,0,0,0-24.59,17c-8.06,7.58-24.63,14.43-35,7.54-11.4-7.56-5.19-23.83,2.79-31.36,7.67-7.22,16.91-12.92,25.75-18.56,6.22-4,14-7.47,19.06-13,6.08-6.72,7.36-16.46,1.41-23.7-6.65-8.08-17.62-12.44-26.24-18-3.89-2.52-9.22-5.62-11.15-10.08-2.81-6.5,2-12.94,8-15.16,11.59-4.32,24.75,4.2,34.25,10,3.75,2.31,7.33,4.86,11.05,7.2C109.18,146.23,110.89,144.05,109.38,143.1Z" style="fill:#fff"></path><g style="opacity:0.30000000000000004"><path d="M144.32,88.77c-2.81,4.9-.9,11.52,3.26,15.35s10,5.28,15.65,5.52a15.93,15.93,0,0,0,20.65,12.56c1.86,2.34,4.09,4.54,6.93,5.49s6.38.28,8.06-2.18c1.49-2.18,1.19-5.21-.07-7.53a21.27,21.27,0,0,0-5.33-5.79c-6.73-5.67-13.65-11.2-21.39-15.38s-19-8.24-27.76-8"></path></g><path d="M237.55,84.36a13.75,13.75,0,0,0-4.48-1.76c-13.94-3.66-28.52-7-42.58-4.5A50.19,50.19,0,0,0,165.75,90l35.34,27c3.11-5.93,6.28-12,11-16.84s11.27-8.59,18.38-8.61a28,28,0,0,0,5.34-.12c1.73-.35,3.44-1.45,3.74-3.1A4.19,4.19,0,0,0,237.55,84.36Z" style="fill:#FF725E"></path><g style="opacity:0.30000000000000004"><path d="M237.55,84.36a13.75,13.75,0,0,0-4.48-1.76c-13.94-3.66-28.52-7-42.58-4.5A50.19,50.19,0,0,0,165.75,90l35.34,27c3.11-5.93,6.28-12,11-16.84s11.27-8.59,18.38-8.61a28,28,0,0,0,5.34-.12c1.73-.35,3.44-1.45,3.74-3.1A4.19,4.19,0,0,0,237.55,84.36Z"></path></g><path d="M234.33,79.58a12.63,12.63,0,0,0-4.47-1.82c-13.93-3.71-28.5-7-42.63-4.22a50.87,50.87,0,0,0-25,13l35.07,28.32c3.2-6.38,6.47-12.84,11.27-18.12s11.41-9.32,18.54-9.43a25.9,25.9,0,0,0,5.36-.21c1.74-.39,3.47-1.59,3.8-3.35A4.46,4.46,0,0,0,234.33,79.58Z" style="fill:#FF725E"></path><path d="M147.42,98.62a6.57,6.57,0,0,1,2.74-12.46,4.77,4.77,0,0,0,1.31-.11,4.34,4.34,0,0,0,1.7-1.38,9.94,9.94,0,0,1,17,4.78,14.56,14.56,0,0,1,11.54-.11,10.48,10.48,0,0,1,6.2,9.35,8.32,8.32,0,0,1,10.54,10.91c1.56.15,2.56,1.69,3.28,3.08,1.29,2.48,2.49,5.24,2,8-.67,3.81-4.66,6.5-8.52,6.34s-7.36-2.75-9.32-6.09a14.84,14.84,0,0,1-1.75-4.6,11.48,11.48,0,0,1-16.82-8.19c-.11-.62-.21-1.35-.75-1.68a2.06,2.06,0,0,0-1.28-.16c-3.39.27-6.89.32-10.09-.83s-6.07-3.73-6.73-7.06" style="fill:#ebebeb"></path><path d="M248.61,85.49a9.54,9.54,0,1,1-7.4-11.27A9.53,9.53,0,0,1,248.61,85.49Z" style="fill:#ebebeb"></path><path d="M79.18,248.77c0,.14-1.54.3-4.22-.36a15.81,15.81,0,0,1-4.64-2,12.06,12.06,0,0,1-4.56-5.11,10.88,10.88,0,0,1-.1-8.42,8.25,8.25,0,0,1,3.14-3.82,6.8,6.8,0,0,1,5.34-1,5,5,0,0,1,2.66,1.6,5.14,5.14,0,0,1,1.17,3,6.13,6.13,0,0,1-.63,3.06,7,7,0,0,1-2,2.39,10.65,10.65,0,0,1-5.54,2,13,13,0,0,1-5.9-.85A12.25,12.25,0,0,1,59,235.84a12.79,12.79,0,0,1-2.66-5.14,12.38,12.38,0,0,1-.15-5.61A8.37,8.37,0,0,1,59,220.25a6,6,0,0,1,5.45-1.11,4.66,4.66,0,0,1,2.34,1.68,5,5,0,0,1,.93,2.53,5.46,5.46,0,0,1-1.67,4.55,6.47,6.47,0,0,1-4,1.67,7.11,7.11,0,0,1-3.75-.76,9.11,9.11,0,0,1-2.64-2,12.4,12.4,0,0,1-2.57-4.41c-.86-2.62-.91-4.12-.77-4.16s.61,1.4,1.71,3.77a12.42,12.42,0,0,0,2.66,3.77,6.58,6.58,0,0,0,5.19,2,4.69,4.69,0,0,0,2.77-1.28,3.46,3.46,0,0,0,.93-2.87,2.56,2.56,0,0,0-1.81-2.26,3.68,3.68,0,0,0-3.25.77,6.1,6.1,0,0,0-1.87,3.5,10.18,10.18,0,0,0,.18,4.45,10,10,0,0,0,6,6.83,10.51,10.51,0,0,0,4.72.69,8.19,8.19,0,0,0,4.21-1.48,3.91,3.91,0,0,0,1.69-3.29,2.46,2.46,0,0,0-1.94-2.39A4.56,4.56,0,0,0,70,231a6.14,6.14,0,0,0-2.38,2.76,9,9,0,0,0-.17,6.84,10.9,10.9,0,0,0,3.67,4.63,17.27,17.27,0,0,0,4.13,2.22C77.72,248.36,79.21,248.56,79.18,248.77Z" style="fill:#fff"></path><path d="M62.81,252.82c-.15.29-1.83-.12-4.23-1.52a24.66,24.66,0,0,1-3.92-2.89,27.78,27.78,0,0,1-6.94-9.66,24,24,0,0,1-1.49-4.63c-.56-2.72-.41-4.45-.08-4.49s.88,1.53,1.84,4c.48,1.22,1.12,2.62,1.9,4.14a42.17,42.17,0,0,0,2.9,4.72,42.6,42.6,0,0,0,3.54,4.25,44.41,44.41,0,0,0,3.32,3.11C61.63,251.49,63,252.47,62.81,252.82Z" style="fill:#455a64"></path><path d="M159.51,253c.07,0,0,.41-.35,1a8.33,8.33,0,0,1-2,2.44,10.73,10.73,0,0,1-4.51,2.31,10.23,10.23,0,0,1-6.76-.67,11.36,11.36,0,0,1-5.75-6,9.35,9.35,0,0,1-.64-2.31,5.18,5.18,0,0,1,.32-2.75,4.06,4.06,0,0,1,2.23-2.1,5.06,5.06,0,0,1,3-.23,6.66,6.66,0,0,1,4.27,3.78,11.17,11.17,0,0,1,1,5.51,11.91,11.91,0,0,1-1.78,5.48,11.08,11.08,0,0,1-4.44,4,11.49,11.49,0,0,1-11.33-.55,11.62,11.62,0,0,1-5.27-9.19,6.93,6.93,0,0,1,.43-2.74,4.37,4.37,0,0,1,2-2.28,4.61,4.61,0,0,1,2.81-.48,5.12,5.12,0,0,1,2.46,1,6,6,0,0,1,2.16,4.21,8.36,8.36,0,0,1-.66,4.1,11.38,11.38,0,0,1-4.48,5.09,16.25,16.25,0,0,1-4.59,1.93c-2.64.64-4.12.63-4.15.48s1.41-.54,3.84-1.45a17.76,17.76,0,0,0,4.09-2.16,10.28,10.28,0,0,0,3.58-4.57,6.71,6.71,0,0,0,.38-3.18,4.11,4.11,0,0,0-1.47-2.73,2.8,2.8,0,0,0-2.86-.26,3.06,3.06,0,0,0-1.1,2.93,9.33,9.33,0,0,0,4.26,7.14,9,9,0,0,0,8.79.35,8.44,8.44,0,0,0,3.41-3,9.41,9.41,0,0,0,1.42-4.29,8.65,8.65,0,0,0-.7-4.25,4.27,4.27,0,0,0-2.57-2.51,2.62,2.62,0,0,0-1.57.07,1.71,1.71,0,0,0-1,.87,4.65,4.65,0,0,0,.24,3.32,9.56,9.56,0,0,0,4.55,5.1,8.89,8.89,0,0,0,5.66.91,10.51,10.51,0,0,0,4.18-1.69C158.63,254.28,159.31,252.9,159.51,253Z" style="fill:#fff"></path><path d="M165.77,265.37c.15.7-7.47,2.9-17,4.9s-17.41,3.05-17.55,2.34,7.47-2.89,17-4.89S165.62,264.67,165.77,265.37Z" style="fill:#455a64"></path><path d="M198.54,212.39c-.34,0-.79-1.45-1-3.9a38,38,0,0,1,.43-9.59,38.82,38.82,0,0,1,2.7-9.22c1-2.24,1.92-3.49,2.24-3.36.69.3-1.22,5.9-2.37,13S199.3,212.33,198.54,212.39Z" style="fill:#455a64"></path><path d="M199.11,183.7c.08,0,.18.35.16,1a7.23,7.23,0,0,1-.71,2.89,9.34,9.34,0,0,1-3,3.69,8.76,8.76,0,0,1-6.22,1.65,9.84,9.84,0,0,1-3.64-1.15,9.72,9.72,0,0,1-3.17-2.72,8.6,8.6,0,0,1-1.14-2,4.23,4.23,0,0,1-.25-2.74,2.89,2.89,0,0,1,.95-1.42,3.18,3.18,0,0,1,1.48-.67,5.56,5.56,0,0,1,2.72.24,14.6,14.6,0,0,1,7.56,6.38,13.64,13.64,0,0,1,1.74,5.06,8.44,8.44,0,0,1-1.15,5.67,8.12,8.12,0,0,1-4.8,3.27,15.79,15.79,0,0,1-5.26.44,9.24,9.24,0,0,1-2.67-.56,5.82,5.82,0,0,1-2.39-1.7,4.26,4.26,0,0,1,0-5.68,5,5,0,0,1,2.34-1.51,6.41,6.41,0,0,1,2.55-.24,8.1,8.1,0,0,1,4.25,1.78,9.21,9.21,0,0,1,3.4,7.11,7.54,7.54,0,0,1-.83,3.42,8.33,8.33,0,0,1-1.91,2.44,8.89,8.89,0,0,1-4.35,2,6.72,6.72,0,0,1-3-.17c-.65-.21-.95-.42-.92-.49,0-.24,1.42.28,3.69-.33a8.45,8.45,0,0,0,3.57-2.1,6.35,6.35,0,0,0,1.89-4.77,7.37,7.37,0,0,0-2.89-5.43A6,6,0,0,0,184,196a3.27,3.27,0,0,0-2.86,1,1.82,1.82,0,0,0,0,2.53,4.6,4.6,0,0,0,3.34,1.31,13.68,13.68,0,0,0,4.38-.39,5.63,5.63,0,0,0,3.31-2.2,5.92,5.92,0,0,0,.75-3.95,11.08,11.08,0,0,0-1.38-4.09,12.34,12.34,0,0,0-6.1-5.37,3.25,3.25,0,0,0-1.54-.21.72.72,0,0,0-.66.45c-.23.55.29,1.89.94,2.76a8.19,8.19,0,0,0,5.32,3.32,7.45,7.45,0,0,0,5.15-1,9.1,9.1,0,0,0,2.95-3,9.41,9.41,0,0,0,1.08-2.5C198.93,184,199,183.7,199.11,183.7Z" style="fill:#fff"></path><path d="M87.37,133.14c0,.1-.33.1-.87.18a5,5,0,0,0-4,3.74,6.88,6.88,0,0,0,.6,4.53A12.71,12.71,0,0,0,87,146a2.66,2.66,0,0,0,1.06.53c.25,0,.21,0,.29-.14a1.57,1.57,0,0,0,0-1,3.75,3.75,0,0,0-.67-1.28A5.73,5.73,0,0,0,85,142.23a10.44,10.44,0,0,0-3.61-.53,15.62,15.62,0,0,0-3.87.42A2.81,2.81,0,0,0,75.29,144a5.11,5.11,0,0,0,.72,3.3c.3.58.65,1.2,1,1.78a8.16,8.16,0,0,0,1.07,1.49,3.09,3.09,0,0,0,1.2.86,1.93,1.93,0,0,0,1.21.1,1.17,1.17,0,0,0,.73-.62,2.17,2.17,0,0,0,.21-1.2,3.16,3.16,0,0,0-1.51-2.18,7.82,7.82,0,0,0-2.85-1.15,8.48,8.48,0,0,0-5.52.64,6.07,6.07,0,0,0-3.06,3.31,6.68,6.68,0,0,0-.37,3.55,6.08,6.08,0,0,0,.8,2.19c.27.47.46.72.39.8s-.36-.06-.8-.47a5.14,5.14,0,0,1-1.38-2.27,7.6,7.6,0,0,1,1.2-6.71,8.18,8.18,0,0,1,2.33-2,10.25,10.25,0,0,1,6.8-1.15,10,10,0,0,1,3.72,1.37,5.44,5.44,0,0,1,2.63,3.8,4.48,4.48,0,0,1-.4,2.59,3.66,3.66,0,0,1-2.2,1.9,5,5,0,0,1-5-1.58,10.61,10.61,0,0,1-1.42-1.91c-.39-.64-.75-1.26-1.11-2a11,11,0,0,1-.89-2.3,5.85,5.85,0,0,1,0-2.83,4.83,4.83,0,0,1,1.65-2.5,6.89,6.89,0,0,1,2.41-1.17,12.53,12.53,0,0,1,2.35-.39c.76-.06,1.48-.09,2.23-.08a13.06,13.06,0,0,1,4.47.74,8.2,8.2,0,0,1,3.67,2.74,6.33,6.33,0,0,1,1,2.11,3.81,3.81,0,0,1-.21,2.63,2.47,2.47,0,0,1-1.17,1.13,2.63,2.63,0,0,1-1.54.18,4.8,4.8,0,0,1-2-1,14.35,14.35,0,0,1-4.2-5.31,8.23,8.23,0,0,1-.32-5.7,5.76,5.76,0,0,1,2.77-3.31,4.47,4.47,0,0,1,2.63-.54C87.11,132.88,87.38,133.06,87.37,133.14Z" style="fill:#fff"></path><path d="M59.94,150.69c-.63-.27,1.46-6.33,6-12.71s9.58-10.35,10-9.84-3.55,5.19-7.92,11.35S60.62,151,59.94,150.69Z" style="fill:#455a64"></path><g style="opacity:0.30000000000000004"><path d="M128.79,176.08a6.29,6.29,0,0,0-3.24,5.93,6,6,0,0,0,4.28,5.19,5.81,5.81,0,0,0,6.26-2.37,5.6,5.6,0,0,0-.58-6.63"></path></g><path d="M136.54,180.53a5.72,5.72,0,1,1-4.45-6.76A5.72,5.72,0,0,1,136.54,180.53Z" style="fill:#ebebeb"></path><g style="opacity:0.30000000000000004"><path d="M117.28,199.77a6.3,6.3,0,0,0-3.24,5.94,6,6,0,0,0,4.28,5.19,5.81,5.81,0,0,0,6.26-2.37,5.59,5.59,0,0,0-.59-6.63"></path></g><path d="M124.92,204.75a5.72,5.72,0,1,1-4.44-6.76A5.72,5.72,0,0,1,124.92,204.75Z" style="fill:#455a64"></path><path d="M127.09,180.25a2.7,2.7,0,0,1,0-2.3c.38-1.27,1.25-2,1.33-1.87s-.49.89-.84,2S127.24,180.23,127.09,180.25Z" style="fill:#fff"></path><path d="M128.19,182.41c-.07.12-.36.06-.52-.22s0-.56.11-.55.26.15.35.3A.51.51,0,0,1,128.19,182.41Z" style="fill:#fff"></path><path d="M115.54,204.09a2.61,2.61,0,0,1-.25-2.43c.38-1.39,1.41-2.07,1.48-1.95a17.52,17.52,0,0,0-1,2.09A21,21,0,0,0,115.54,204.09Z" style="fill:#fff"></path><path d="M117,207.28c-.11.09-.4-.08-.66-.39s-.36-.62-.25-.71.4.08.66.38S117.1,207.19,117,207.28Z" style="fill:#fff"></path><path d="M72.62,121.3a33.84,33.84,0,0,0-7.24-1.24,34.56,34.56,0,0,0-7.29.86,6.61,6.61,0,0,1,2-.78,19.05,19.05,0,0,1,10.48.27A6.36,6.36,0,0,1,72.62,121.3Z" style="fill:#fff"></path><path d="M154.58,88.19c-.06,0-.05-.49.23-1.19a5.66,5.66,0,0,1,4.5-3.41c.76-.08,1.22,0,1.21.1s-.46.1-1.14.26a6.59,6.59,0,0,0-4.24,3.21C154.8,87.77,154.66,88.2,154.58,88.19Z" style="fill:#fff"></path><path d="M147.67,93.8s-.29-.33-.4-1a4.43,4.43,0,0,1,2.2-4.41c.59-.31,1-.33,1-.28s-.34.23-.83.59a5.13,5.13,0,0,0-1.51,1.79,5.21,5.21,0,0,0-.52,2.28C147.65,93.39,147.75,93.77,147.67,93.8Z" style="fill:#fff"></path><path d="M199.56,74.89c0,.09-1.49,0-3.87.12a41.34,41.34,0,0,0-9.17,1.55A40.52,40.52,0,0,0,178,80.2c-2.08,1.18-3.28,2.06-3.33,2a4,4,0,0,1,.79-.68,25.35,25.35,0,0,1,2.35-1.62,35.41,35.41,0,0,1,17.9-5.24,24.42,24.42,0,0,1,2.85.1A3.68,3.68,0,0,1,199.56,74.89Z" style="fill:#fff"></path><g style="opacity:0.30000000000000004"><path d="M163.33,136.32c.36.14.39,1.5-.67,3.48a7.59,7.59,0,0,1-2.82,2.92,6.78,6.78,0,0,1-5.27.68,5.58,5.58,0,0,1-2.51-1.59,6.63,6.63,0,0,1-1.32-2.24,9.53,9.53,0,0,1-.46-3.92c.21-2.19.95-3.36,1.34-3.27s.48,1.35.83,3.18a11.43,11.43,0,0,0,.9,2.93,3.56,3.56,0,0,0,2.11,2,4.73,4.73,0,0,0,3.08-.25,7.82,7.82,0,0,0,2.38-1.7C162.19,137.22,162.92,136.14,163.33,136.32Z"></path></g><path d="M150.73,127.68a3.45,3.45,0,1,1-.61-4.84A3.45,3.45,0,0,1,150.73,127.68Z" style="opacity:0.30000000000000004"></path><path d="M174.12,137.23a3.45,3.45,0,1,1-.61-4.84A3.46,3.46,0,0,1,174.12,137.23Z" style="opacity:0.30000000000000004"></path><path d="M162.46,135c.3.11.28,1.45-.8,3.38a7.7,7.7,0,0,1-2.79,2.83,6.6,6.6,0,0,1-5.1.65,5.41,5.41,0,0,1-2.42-1.53,6.36,6.36,0,0,1-1.28-2.17,9.37,9.37,0,0,1-.49-3.84c.16-2.16.84-3.34,1.17-3.26s.36,1.33.67,3.18a11.51,11.51,0,0,0,.87,3,3.67,3.67,0,0,0,2.24,2.11,4.81,4.81,0,0,0,3.24-.28,8,8,0,0,0,2.41-1.79C161.43,135.94,162.11,134.85,162.46,135Z" style="fill:#fff"></path><path d="M149.86,126.35a3.45,3.45,0,1,1-.61-4.84A3.45,3.45,0,0,1,149.86,126.35Z" style="fill:#fff"></path><path d="M173.25,135.91a3.45,3.45,0,1,1-.61-4.85A3.45,3.45,0,0,1,173.25,135.91Z" style="fill:#fff"></path></g></svg>